# 3ds Max Wavefront OBJ Exporter v0.97b - (c)2007 guruware
# File Created: 20.06.2019 13:04:35

mtllib WelcomeMatOBJ.mtl

#
# object welcome_mat_timb
#

v  39.0277 0.0000 -21.7266
v  39.0277 0.0000 32.7306
v  -48.1039 0.0000 32.7306
v  -48.1039 0.0000 -21.7266
v  39.0277 2.2675 -21.7266
v  -48.1039 2.2675 -21.7266
v  -48.1039 2.2675 32.7306
v  39.0277 2.2675 32.7306
# 8 vertices

vn 0.0000 -1.0000 -0.0000
vn 0.0000 1.0000 -0.0000
vn 0.0000 0.0000 -1.0000
vn -1.0000 0.0000 -0.0000
vn 0.0000 0.0000 1.0000
vn 1.0000 0.0000 -0.0000
# 6 vertex normals

vt 0.9995 0.0005 0.0005
vt 0.9995 0.9995 0.9995
vt 0.0005 0.9995 0.9995
vt 0.0005 0.0005 0.0005
# 4 texture coords

g welcome_mat_timb
usemtl Material__35
f 1/1/1 2/2/1 3/3/1 
f 3/3/1 4/4/1 1/1/1 
f 5/4/2 6/1/2 7/2/2 
f 7/2/2 8/3/2 5/4/2 
f 1/4/3 4/1/3 6/1/3 
f 6/1/3 5/4/3 1/4/3 
f 4/1/4 3/2/4 7/2/4 
f 7/2/4 6/1/4 4/1/4 
f 3/2/5 2/3/5 8/3/5 
f 8/3/5 7/2/5 3/2/5 
f 2/3/6 1/4/6 5/4/6 
f 5/4/6 8/3/6 2/3/6 
# 0 polygons - 12 triangles

